<?xml version="1.0" standalone="no"?>
<!DOCTYPE svg PUBLIC "-//W3C//DTD SVG 20010904//EN"
 "http://www.w3.org/TR/2001/REC-SVG-20010904/DTD/svg10.dtd">
<svg version="1.0" xmlns="http://www.w3.org/2000/svg"
 width="1280.000000pt" height="1280.000000pt" viewBox="0 0 1280.000000 1280.000000"
 preserveAspectRatio="xMidYMid meet">
<metadata>
Created by potrace 1.11, written by Peter Selinger 2001-2013
</metadata>
<g transform="translate(0.000000,1280.000000) scale(0.100000,-0.100000)"
fill="#000000" stroke="none">
<path d="M3412 9608 c-1 -1283 -1 -2339 -1 -2345 -1 -10 -306 -13 -1491 -13
l-1490 0 -1 -37 c0 -21 -1 -1365 -2 -2987 l-2 -2950 -130 -1 c-165 -2 -206
-19 -264 -103 -35 -52 -36 -160 -2 -215 29 -47 74 -82 126 -96 30 -9 1631 -11
6270 -9 l6230 3 42 28 c116 75 134 234 37 331 -49 48 -87 59 -220 61 -66 1
-125 5 -131 8 -8 5 -11 568 -11 1884 -1 1033 -1 1894 -1 1913 l-1 35 -1490 0
c-1484 0 -1490 0 -1491 20 0 11 0 875 -1 1920 l0 1900 -1494 -1 -1494 0 0
1493 0 1493 -1494 0 -1494 0 0 -2332z"/>
</g>
</svg>
